<?xml version="1.0" standalone="no"?>
<!DOCTYPE svg PUBLIC "-//W3C//DTD SVG 20010904//EN"
        "http://www.w3.org/TR/2001/REC-SVG-20010904/DTD/svg10.dtd">
<svg version="1.0" xmlns="http://www.w3.org/2000/svg"
     width="700.000000pt" height="700.000000pt" viewBox="0 0 700.000000 700.000000"
     preserveAspectRatio="xMidYMid meet">
    <metadata>
        Created by potrace 1.11, written by Peter Selinger 2001-2013
    </metadata>
    <g transform="translate(0.000000,700.000000) scale(0.100000,-0.100000)"
       fill="#000000" stroke="none">
        <path d="M4414 6982 c14 -23 89 -342 111 -475 113 -674 -91 -888 -659 -690
-144 50 -423 180 -641 298 -633 344 -875 468 -1020 522 -22 8 -49 19 -60 24
-73 32 -308 85 -323 73 -6 -4 41 -93 272 -517 33 -61 80 -146 159 -287 39 -69
88 -159 110 -200 22 -41 63 -118 92 -170 95 -174 360 -712 457 -930 109 -245
246 -594 307 -785 38 -116 106 -361 117 -418 2 -12 6 -33 9 -47 14 -64 17 -79
26 -135 6 -33 12 -73 14 -90 3 -16 8 -55 12 -85 9 -70 10 -418 1 -490 -14
-110 -58 -270 -99 -354 -10 -22 -19 -42 -19 -44 0 -2 33 29 73 69 40 41 113
110 162 154 49 44 96 87 105 95 9 8 79 69 155 135 77 66 145 124 151 130 6 5
37 33 69 60 32 28 66 57 76 66 260 226 560 536 725 749 243 314 400 637 469
960 49 233 55 521 14 735 -6 33 -13 71 -15 85 -2 14 -7 36 -11 50 -3 14 -7 30
-9 36 -12 60 -64 221 -101 314 -110 282 -264 556 -472 845 -80 111 -249 325
-257 325 -3 0 -3 -4 0 -8z"/>
        <path d="M2177 2823 c-39 -75 -168 -177 -300 -237 -117 -54 -386 -140 -497
-160 -14 -2 -65 -14 -115 -26 -49 -11 -139 -33 -200 -47 -493 -114 -747 -218
-896 -366 -112 -111 -160 -222 -165 -378 -3 -128 33 -294 93 -426 12 -28 23
-55 23 -59 0 -11 144 -274 180 -329 137 -210 311 -450 421 -580 9 -11 43 -51
76 -90 86 -103 107 -125 99 -100 -10 28 -56 195 -62 225 -3 14 -11 50 -19 80
-8 30 -17 71 -20 90 -3 19 -10 60 -15 90 -23 134 -30 279 -19 374 12 96 16
113 42 169 51 109 134 160 285 172 29 2 150 -14 224 -29 38 -9 291 -97 303
-106 6 -4 39 -20 75 -35 73 -31 390 -187 520 -257 191 -102 254 -135 455 -238
361 -184 609 -280 768 -296 31 -3 57 -3 57 1 0 9 -1280 2569 -1290 2579 -5 5
-15 -4 -23 -21z"/>
        <path d="M4594 2438 c-114 -227 -210 -420 -215 -428 -5 -8 -44 -87 -87 -175
-43 -88 -84 -169 -90 -180 -6 -11 -24 -47 -40 -80 -16 -33 -34 -69 -40 -80 -6
-11 -65 -129 -131 -261 -65 -133 -124 -250 -130 -260 -21 -38 -351 -705 -351
-710 0 -10 114 5 190 25 178 47 488 186 865 389 378 203 767 397 815 406 3 1
11 5 18 9 20 13 225 85 288 101 161 41 303 38 393 -9 151 -78 203 -329 141
-685 -5 -30 -12 -70 -15 -89 -3 -19 -8 -37 -10 -41 -2 -4 -6 -20 -9 -36 -8
-41 -77 -307 -82 -316 -40 -64 193 214 328 392 329 434 515 789 559 1070 13
86 7 213 -15 286 -44 142 -186 287 -370 377 -115 56 -365 141 -477 162 -12 3
-36 9 -53 14 -17 6 -42 12 -56 15 -14 3 -83 19 -155 36 -71 16 -168 39 -215
50 -47 11 -110 26 -140 35 -30 8 -66 18 -80 21 -45 9 -227 74 -294 104 -132
59 -246 146 -304 233 -13 20 -26 37 -28 37 -3 0 -97 -186 -210 -412z"/>
        <path d="M3218 2103 c-25 -32 -57 -78 -72 -103 l-27 -45 38 42 c34 38 118 163
110 163 -2 0 -24 -26 -49 -57z"/>
    </g>
</svg>
